<svg width="20" height="20" viewBox="0 0 20 20" fill="none" xmlns="http://www.w3.org/2000/svg">
<g clip-path="url(#clip0)">
<path d="M19.9805 5.88005C19.9336 4.81737 19.7618 4.08679 19.5156 3.45373C19.2616 2.78176 18.8709 2.18014 18.3591 1.68001C17.8589 1.1721 17.2533 0.777428 16.5891 0.52744C15.9524 0.281267 15.2257 0.109419 14.163 0.0625657C13.0924 0.0117439 12.7525 -7.62939e-06 10.0371 -7.62939e-06C7.32172 -7.62939e-06 6.98184 0.0117439 5.9152 0.0585976C4.85252 0.105451 4.12194 0.277452 3.48903 0.523472C2.8169 0.777428 2.21528 1.16813 1.71515 1.68001C1.20724 2.18014 0.812722 2.78573 0.562581 3.44992C0.316408 4.08679 0.14456 4.81341 0.0977067 5.87608C0.0468849 6.9467 0.0351334 7.28658 0.0351334 10.002C0.0351334 12.7173 0.0468849 13.0572 0.0937386 14.1239C0.140592 15.1865 0.312593 15.9171 0.558765 16.5502C0.812722 17.2222 1.20724 17.8238 1.71515 18.3239C2.21528 18.8318 2.82087 19.2265 3.48506 19.4765C4.12194 19.7226 4.84855 19.8945 5.91138 19.9413C6.97788 19.9883 7.31791 19.9999 10.0333 19.9999C12.7487 19.9999 13.0885 19.9883 14.1552 19.9413C15.2179 19.8945 15.9485 19.7226 16.5814 19.4765C17.9255 18.9568 18.9881 17.8941 19.5078 16.5502C19.7538 15.9133 19.9258 15.1865 19.9727 14.1239C20.0195 13.0572 20.0313 12.7173 20.0313 10.002C20.0313 7.28658 20.0273 6.9467 19.9805 5.88005ZM18.1794 14.0457C18.1364 15.0225 17.9723 15.5499 17.8356 15.9015C17.4995 16.7728 16.808 17.4644 15.9367 17.8004C15.5851 17.9372 15.0538 18.1012 14.0809 18.1441C13.026 18.1911 12.7096 18.2027 10.0411 18.2027C7.37255 18.2027 7.0522 18.1911 6.00112 18.1441C5.02437 18.1012 4.49692 17.9372 4.14529 17.8004C3.7117 17.6402 3.31703 17.3862 2.99668 17.0541C2.66459 16.7298 2.41063 16.3391 2.25038 15.9055C2.11364 15.5539 1.94957 15.0225 1.90669 14.0497C1.85968 12.9948 1.84808 12.6783 1.84808 10.0097C1.84808 7.34122 1.85968 7.02087 1.90669 5.96994C1.94957 4.99319 2.11364 4.46574 2.25038 4.11411C2.41063 3.68037 2.66459 3.28585 3.00065 2.96536C3.32481 2.63326 3.71551 2.3793 4.14925 2.21921C4.50089 2.08246 5.0323 1.9184 6.00509 1.87536C7.05998 1.82851 7.37651 1.81675 10.0449 1.81675C12.7174 1.81675 13.0338 1.82851 14.0848 1.87536C15.0616 1.9184 15.589 2.08246 15.9407 2.21921C16.3743 2.3793 16.7689 2.63326 17.0893 2.96536C17.4214 3.28967 17.6753 3.68037 17.8356 4.11411C17.9723 4.46574 18.1364 4.997 18.1794 5.96994C18.2263 7.02484 18.238 7.34122 18.238 10.0097C18.238 12.6783 18.2263 12.9908 18.1794 14.0457Z" fill="white"/>
<path d="M10.0371 4.86424C7.20069 4.86424 4.89937 7.16541 4.89937 10.002C4.89937 12.8385 7.20069 15.1397 10.0371 15.1397C12.8736 15.1397 15.1748 12.8385 15.1748 10.002C15.1748 7.16541 12.8736 4.86424 10.0371 4.86424ZM10.0371 13.3347C8.19698 13.3347 6.70438 11.8422 6.70438 10.002C6.70438 8.1617 8.19698 6.66925 10.0371 6.66925C11.8774 6.66925 13.3698 8.1617 13.3698 10.002C13.3698 11.8422 11.8774 13.3347 10.0371 13.3347Z" fill="white"/>
<path d="M16.5775 4.6611C16.5775 5.32346 16.0405 5.86052 15.3779 5.86052C14.7156 5.86052 14.1785 5.32346 14.1785 4.6611C14.1785 3.99859 14.7156 3.46168 15.3779 3.46168C16.0405 3.46168 16.5775 3.99859 16.5775 4.6611Z" fill="white"/>
</g>
<defs>
<clipPath id="clip0">
<rect width="20" height="20" fill="white"/>
</clipPath>
</defs>
</svg>
